<svg xmlns="http://www.w3.org/2000/svg" width="140" height="140" viewBox="0 0 140 140"><style>.a{fill:#fff}</style><title>ava-group</title><g fill="none"><path fill="#D2D2D1" d="M.7 0h138.6v139.6H.7z"/><path d="M60.1 81.8c-5.3-6.7-8.4-15.2-8.4-24 0-2.8.3-5.5.9-8.2-2.6-.8-5.4-1.2-8.3-1.2-15.2 0-27.6 12.4-27.6 27.8 0 9.2 4.4 17.3 11.1 22.4-12.2 6.8-22.1 21.1-27.1 39.2v1.8H31C34.4 115 45 94 60.1 81.8" class="a"/><path d="M139.3 131.3c-5.1-22.4-16.7-40.3-31.5-48.5 7.6-5.7 12.5-14.8 12.5-25 0-17.1-13.8-31-30.8-31-17.1 0-30.9 13.9-30.9 31 0 10.2 4.9 19.3 12.5 25-16.6 9.2-29.1 30.5-33 56.8h101.2v-8.3" class="a"/></g></svg>