<svg xmlns="http://www.w3.org/2000/svg" width="20" height="24" viewBox="0 0 20 24"><title>B61CEDBA-0232-4067-9CF6-C3F93D0577CA</title><g fill="none"><path d="M-2 0h24v24H-2z"/><path d="M4 18c0 .6.5 1 1 1h1v3.5c0 .8.7 1.5 1.5 1.5S9 23.3 9 22.5V19h2v3.5c0 .8.7 1.5 1.5 1.5s1.5-.7 1.5-1.5V19h1c.6 0 1-.4 1-1V8H4v10zM1.5 8C.7 8 0 8.7 0 9.5v7c0 .8.7 1.5 1.5 1.5S3 17.3 3 16.5v-7C3 8.7 2.3 8 1.5 8zm17 0c-.8 0-1.5.7-1.5 1.5v7c0 .8.7 1.5 1.5 1.5s1.5-.7 1.5-1.5v-7c0-.8-.7-1.5-1.5-1.5zm-5-5.8L14.8.9c.2-.2.2-.5 0-.7-.2-.2-.5-.2-.7 0l-1.5 1.4C11.9 1.2 11 1 10 1s-1.9.2-2.7.6L5.9.2c-.2-.2-.6-.2-.8 0-.2.2-.2.5 0 .7l1.4 1.3C5 3.3 4 5 4 7h12c0-2-1-3.7-2.5-4.8zM8 5H7V4h1v1zm5 0h-1V4h1v1z" fill="#959595"/></g></svg>