<svg xmlns="http://www.w3.org/2000/svg" width="24" height="24" viewBox="0 0 24 24"><path fill="#17D04B" d="M5 4a2 2 0 0 0-2 2v10.29l8.18-8.18A6.96 6.96 0 0 1 11 6.53c0-.91.2-1.77.59-2.53H5m13 17a2 2 0 0 0 2-2v-7.14c-.76 1.14-1.69 2.35-2.71 3.64l-.79 1-.78-1c-1.33-1.65-2.5-3.18-3.33-4.59-.34-.58-.63-1.15-.86-1.73l-4.07 4.07L15.21 21H18M3 19a2 2 0 0 0 2 2h8.79l-7.04-7.04L3 17.71V19m13.5-4c2.61-3.37 4.5-5.9 4.5-8.43C21 4.05 19 2 16.5 2S12 4.05 12 6.57c0 2.53 1.87 5.06 4.5 8.43m2-8.5a2 2 0 0 1-2 2 2 2 0 0 1-2-2 2 2 0 0 1 2-2 2 2 0 0 1 2 2z"/></svg>