<svg xmlns="http://www.w3.org/2000/svg" width="20" height="20" viewBox="0 0 20 20"><style>.a{fill:#959595}</style><title>ic_sentiment_satisfied</title><g transform="translate(-2 -2)" fill="none"><path d="M0 0h24v24H0z"/><circle cx="15.5" cy="9.5" r="1.5" class="a"/><circle cx="8.5" cy="9.5" r="1.5" class="a"/><path d="M12 2C6.5 2 2 6.5 2 12s4.5 10 10 10 10-4.5 10-10S17.5 2 12 2zm0 18c-4.4 0-8-3.6-8-8s3.6-8 8-8 8 3.6 8 8-3.6 8-8 8zm0-4c-1.5 0-2.7-.8-3.4-2H6.9c.8 2.1 2.8 3.5 5.1 3.5s4.3-1.4 5.1-3.5h-1.6c-.7 1.2-2 2-3.5 2z" class="a"/></g></svg>