<svg xmlns="http://www.w3.org/2000/svg" width="14" height="34" viewBox="0 0 14 34"><title>icon-attach</title><path d="M2.6.7c1.5-.9 3.5-.9 5 0S10 3.4 10 5.5l-.1 19.9c0 1.1-.3 2.1-.8 2.8-.6.7-1.3 1.1-2.2 1.1C5.5 29.3 4 28 4 25.4v-14c0-.5.5-1 1-1 .6 0 1 .4 1 1v14c0 1.2.5 1.8 1 1.8.2 0 .4-.1.6-.3.2-.3.4-.9.4-1.5V5.5c0-1.4-.5-2.4-1.4-3-.9-.6-2.1-.6-3.1 0-.9.6-1.4 1.6-1.4 3 0 5.9-.1 17.8-.1 20.8 0 3.9 2.6 5.6 4.9 5.6 2.4 0 5-1.8 5-5.6L12 5.5c0-.6.5-1.1 1-1.1.6 0 1 .5 1 1.1l-.1 20.8c0 2.4-.8 4.3-2.1 5.6-1.3 1.4-3.1 2.1-4.9 2.1C3.5 34 0 31.4 0 26.3c0-3 .1-14.9.1-20.8C.1 3.4 1 1.6 2.6.7" fill="#BEBEBE"/></svg>