<svg xmlns="http://www.w3.org/2000/svg" width="26" height="30" viewBox="0 0 26 30"><title>icon-android</title><path d="M17.4 2.2l1.4-2-.1-.1-.2-.1-1.4 2.1c-1-.4-2.2-.7-3.6-.7-1.5 0-2.6.3-3.6.6L8.5 0l-.2.1-.1.1 1.3 2c-4 1.7-4.1 6.1-4.1 6.1h16.2s-.2-4.3-4.2-6.1zM9.9 5.7c-.5 0-.9-.4-.9-.9 0-.6.4-1 .9-1 .6 0 1 .4 1 1 0 .5-.4.9-1 .9zm7.1 0c-.5 0-.9-.4-.9-.9 0-.6.4-1 .9-1 .6 0 1 .4 1 1 0 .5-.4.9-1 .9zM5.3 15.9h.1V23c0 .5.4.9.9.9h2.1v4.4c0 .9.8 1.7 1.7 1.7 1 0 1.8-.8 1.8-1.7v-4.4h3.2v4.4c0 .9.8 1.7 1.7 1.7 1 0 1.8-.8 1.8-1.7v-4.4h2.1c.5 0 .9-.4.9-.9v-7.1h.1V9.3H5.3v6.6zm19-7.2c-1 0-1.8.8-1.8 1.7v7.8c0 1 .8 1.7 1.8 1.7.9 0 1.7-.7 1.7-1.7v-7.8c0-.9-.8-1.7-1.7-1.7zm-21.6 0c-.9 0-1.7.8-1.7 1.7v7.8c0 1 .8 1.7 1.7 1.7 1 0 1.8-.7 1.8-1.7v-7.8c0-.9-.8-1.7-1.8-1.7z" fill="#CCC"/></svg>