<svg xmlns="http://www.w3.org/2000/svg" width="27" height="32" viewBox="0 0 27 32"><style>.a{fill:#ffabaa}</style><title>icon-invite</title><g fill="none"><path d="M21.4 19.5c-.9 0-1.8-.1-2.6-.4-1.6.6-3.4.9-5.2.9-1.9 0-3.8-.3-5.4-1-1 .3-2 .5-3 .5-.8 0-1.4-.1-2.1-.2l3 10.6c4.9 2 9.9 1.9 15.1 0l3-10.8c-.8.2-1.8.4-2.8.4" fill="#FFF"/><path d="M17 2.6c0 1.4-1.2 2.6-2.6 2.6-1.4 0-2.6-1.2-2.6-2.6C11.8 1.2 13 0 14.4 0 15.8 0 17 1.2 17 2.6" class="a"/><path d="M23.1 10.1C22.8 7.9 20.9 6 18.3 5c-.8 1.3-2.3 2.1-3.9 2.1-1.8 0-3.4-1-4.1-2.6-3.2.9-5.6 2.9-6.1 5.4-2.4.4-4.2 1.9-4.2 3.6 0 2.1 2.3 3.7 5.2 3.7 1.1 0 2.1-.2 3-.7 1.5.8 3.4 1.2 5.4 1.2 1.9 0 3.7-.3 5.1-1 .8.3 1.7.5 2.7.5 2.8 0 5.1-1.6 5.1-3.7 0-1.5-1.4-2.9-3.4-3.4" class="a"/></g></svg>