<svg xmlns="http://www.w3.org/2000/svg" width="226" height="49" viewBox="0 0 226 49"><title>logo-qmunicate</title><g fill="none"><path d="M47.7 7.7c-1-2.8-3.3-5.1-6.1-6.1-2.6-.8-5-.8-9.8-.8H17.3c-4.9 0-7.3 0-9.9.8-2.8 1-5 3.3-6.1 6.1-.8 2.6-.8 5-.8 9.8v14.6c0 4.8 0 7.2.8 9.8 1.1 2.8 3.3 5 6.1 6.1 2.6.8 5 .8 9.9.8h14.5c4.8 0 7.2 0 9.8-.8 2.8-1.1 5.1-3.3 6.1-6.1.8-2.6.8-5 .8-9.8V17.5c0-4.8 0-7.2-.8-9.8zM37.2 43.8l-9.3-6.7H15.7c-2.1 0-3.9-1.8-3.9-4V15.7c0-2.2 1.8-4 3.9-4h17.5c2.2 0 4 1.8 4 4v28.1z" fill="#00BF28"/><path d="M77.3 30.4c-1.2 1-2.7 1.5-4.4 1.5-4.3 0-7.2-3.3-7.2-7.2 0-3.9 2.9-7.2 7.2-7.2 4.3 0 7.1 3.3 7.1 7.2 0 1.8-.6 3.4-1.7 4.7l1.9 1.5-1.1 1.2-1.8-1.7zm-1.2-1l-2.6-2.2 1.1-1.2 2.6 2.4c.7-1 1.2-2.3 1.2-3.7 0-3.2-2.3-5.8-5.5-5.8s-5.5 2.6-5.5 5.8c0 3.2 2.3 5.8 5.5 5.8 1.2 0 2.4-.4 3.2-1.1zM86 24h5.6v1.6H86V24zm12-6.2h1.6l5.1 7.6 5.1-7.6h1.6v14h-1.5V20.5l-5.1 7.5h-.1l-5.1-7.5v11.3H98v-14zm20.4 8v-8.1h1.6v8c0 3 1.6 4.7 4.3 4.7 2.5 0 4.2-1.5 4.2-4.6v-8.1h1.6v8c0 4.1-2.4 6.2-5.9 6.2-3.4 0-5.8-2.1-5.8-6.1zm18.6-8h1.5l8.8 11.2V17.8h1.5v14h-1.2l-9.1-11.5v11.5H137v-14zm19 0h1.6v14H156v-14zm8.1 7c0-4 2.9-7.2 7-7.2 2.6 0 4.1.9 5.5 2.2l-1.1 1.1c-1.2-1.1-2.5-1.9-4.4-1.9-3.1 0-5.4 2.5-5.4 5.8 0 3.2 2.3 5.8 5.4 5.8 1.9 0 3.2-.8 4.5-2l1.1 1.1c-1.5 1.4-3.1 2.3-5.6 2.3-4.1 0-7-3.1-7-7.2zm23.6-7.1h1.5l6.4 14.1h-1.7l-1.7-3.7h-7.6l-1.6 3.7h-1.7l6.4-14.1zm3.9 9l-3.2-7.1-3.2 7.1h6.4zm11.5-7.4h-4.7v-1.5h11v1.5h-4.7v12.5h-1.6V19.3zm12-1.5h10.1v1.4h-8.5V24h7.6v1.5h-7.6v4.9h8.6v1.4h-10.2v-14z" fill="#666"/></g></svg>