<svg xmlns="http://www.w3.org/2000/svg" width="55" height="55" viewBox="0 0 55 55"><title>logo-qmunicate-transparent</title><path d="M17.5 41.2c-2.5 0-4.5-2-4.5-4.5V16.9c0-2.5 2-4.5 4.5-4.5h19.8c2.5 0 4.5 2 4.5 4.5v31.9l-10.5-7.6H17.5M35.8 0H19.2C13.7 0 11 0 8 .9 4.8 2.1 2.3 4.6 1.1 7.8.2 10.7.2 13.5.2 19v16.5c0 5.5 0 8.2.9 11.2 1.2 3.2 3.7 5.7 6.9 6.9 2.9.9 5.7.9 11.2.9h16.6c5.5 0 8.2 0 11.2-.9 3.2-1.2 5.7-3.7 6.9-6.9.9-2.9.9-5.7.9-11.2V19c0-5.5 0-8.2-.9-11.2-1.2-3.2-3.7-5.7-6.9-6.9C44 0 41.2 0 35.8 0" fill="#FFF" opacity=".2"/></svg>