<svg xmlns="http://www.w3.org/2000/svg" width="129" height="26" viewBox="0 0 129 26"><title>logo-quickblox-gray</title><g fill="#C6C6C6"><path d="M37.1 8.1V1.9h1.5c1.2 0 2.6.3 2.6 1.8 0 1.4-1.4 1.7-2.6 1.7h-1v2.7h-.5zm.5-3.2H39c.8 0 1.6-.3 1.6-1.2 0-1-.8-1.3-1.6-1.3h-1.4v2.5zM47.6 8.3c-1.7 0-2.7-1.3-2.7-3.3 0-1.9 1-3.2 2.7-3.2 1.8 0 2.8 1.3 2.8 3.2 0 2-1 3.3-2.8 3.3zm0-.6c1.6 0 2.2-1.3 2.2-2.7 0-1.3-.6-2.7-2.2-2.7-1.5 0-2.1 1.4-2.1 2.7 0 1.4.6 2.7 2.1 2.7zM56.2 8.1h-.8l-1.6-6.2h.5l1.5 5.7 1.8-5.7h.7l1.9 5.7 1.5-5.7h.5l-1.6 6.2h-.8L58 2.5h-.1l-1.7 5.6M66 8.1V1.9h3.7v.5h-3.2v2.3h3v.5h-3v2.4h3.3v.5H66M74.4 8.1h-.6V1.9h2c.6 0 1 0 1.5.3.4.3.7.7.7 1.3 0 .7-.5 1.2-1.2 1.4.7.1.9.7 1 1.4.1 1 .1 1.4.3 1.8h-.6c-.2-.4-.2-.8-.2-1.3-.2-1.4-.3-1.6-1.4-1.6h-1.5v2.9zm1.2-3.5c.8 0 1.7 0 1.7-1.1 0-1.2-1.1-1.1-1.7-1.1h-1.2v2.2h1.2zM82.3 8.1V1.9h3.6v.5h-3.1v2.3h3v.5h-3v2.4h3.3v.5h-3.8M91.7 1.9c2.1 0 3.2 1.1 3.2 3.1 0 2.1-1.1 3.1-3.2 3.1H90V1.9h1.7zm.2 5.7c1.7 0 2.4-1 2.4-2.6 0-1.8-1.1-2.6-2.8-2.6h-.9v5.2h1.3zM37.1 21.4v-6.2h2.2c.9 0 1.7.6 1.7 1.6 0 .6-.5 1.2-1.1 1.4.8.1 1.4.7 1.4 1.6 0 .8-.5 1.6-1.9 1.6h-2.3zm1.9-3.5c.7 0 1.4-.2 1.4-1.1 0-.9-.7-1.1-1.4-1.1h-1.4v2.2H39zm-1.4 3H39c1.1 0 1.7-.3 1.7-1.2 0-1.1-.9-1.2-2-1.2h-1.1v2.4zM46.8 18.7l-2.3-3.5h.8l1.9 3 1.9-3h.6l-2.3 3.5v2.7h-.6v-2.7M62.4 21.4c-.3 0-.8-.1-1.1 0-.2.1-.5.1-.7.1-1.8 0-2.7-1.3-2.7-3.2 0-1.9.9-3.2 2.7-3.2 1.8 0 2.8 1.3 2.8 3.2 0 1-.4 2-1.1 2.6v.1c.4-.1.9-.1 1.3-.1v.5h-1.2zm-1.8-.4c1.6 0 2.2-1.3 2.2-2.7 0-1.4-.6-2.7-2.2-2.7-1.5 0-2.1 1.3-2.1 2.7 0 1.4.6 2.7 2.1 2.7zM68.1 15.2v4c0 1.1.7 1.8 1.7 1.8s1.7-.7 1.7-1.8v-4h.6v4c0 1.4-.8 2.3-2.3 2.3-1.5 0-2.3-.9-2.3-2.3v-4h.6M76.5 15.2h.6v6.2h-.6v-6.2zM85.4 16.7c-.1-.8-.8-1.1-1.5-1.1-1.6 0-2.1 1.4-2.1 2.7 0 1.3.5 2.7 2.1 2.7.7 0 1.4-.3 1.5-1.1h.6c-.1 1.1-1.1 1.6-2.1 1.6-1.9 0-2.7-1.5-2.7-3.2 0-1.7.8-3.2 2.7-3.2 1 0 2 .4 2.1 1.6h-.6M90 21.4v-6.2h.6v2.7l2.8-2.7h.7L91.2 18l3.1 3.4h-.7l-3-3.2v3.2H90M98.1 15.2h2.2c.7 0 1.2.1 1.6.5.2.2.4.6.4 1.1 0 1-.8 1.3-1.1 1.4.4.1 1.3.3 1.3 1.5 0 .9-.6 1.3-.8 1.4-.4.3-.9.3-1.4.3h-2.2v-6.2zm.8 2.6h1.2c.3 0 1.3 0 1.3-1 0-.9-.8-.9-1.3-.9h-1.2v1.9zm0 2.9h1.5c.6 0 1.2-.3 1.2-1.1 0-.6-.4-1-1.2-1h-1.5v2.1zM106.5 15.2h.8v5.4h2.9v.8h-3.7v-6.2M114.3 15.9c.7-.7 1.5-.9 2.1-.9 1.7 0 2.8 1.1 2.8 3.2 0 1.7-.7 3.4-2.9 3.4-2.1 0-2.8-1.5-2.8-3.2 0-.8.2-1.8.8-2.5zm.7 4.4c.3.4.9.5 1.4.5.5 0 1-.1 1.3-.5.5-.7.6-1.6.6-2.1 0-1.4-.5-2.4-1.9-2.4-1.6 0-2 1.2-2 2.5 0 .7.2 1.4.6 2zM123.6 15.2l1.7 2.4 1.7-2.4h1l-2.2 3 2.3 3.2H127l-1.8-2.7-1.9 2.7h-1.1l2.5-3.2-2.2-3h1.1M5.3 0H.7C.3 0 0 .3 0 .7v4.5c0 .4.3.7.7.7h4.6c.3 0 .6-.3.6-.7V.7c0-.4-.3-.7-.6-.7M13.4 0H8.9c-.4 0-.7.3-.7.7v4.5c0 .4.3.7.7.7h4.5c.4 0 .7-.3.7-.7V.7c0-.4-.3-.7-.7-.7M21.6 0h-4.5c-.4 0-.7.3-.7.7v4.5c0 .4.3.7.7.7h4.5c.4 0 .7-.3.7-.7V.7c0-.4-.3-.7-.7-.7M5.3 8.1H.7c-.4 0-.7.3-.7.7v4.6c0 .4.3.7.7.7h4.6c.3 0 .6-.3.6-.7V8.8c0-.4-.3-.7-.6-.7M21.6 8.1h-4.5c-.4 0-.7.3-.7.7v4.6c0 .4.3.7.7.7h4.5c.4 0 .7-.3.7-.7V8.8c0-.4-.3-.7-.7-.7M5.3 16.2H.7c-.4 0-.7.4-.7.7v4.6c0 .4.3.7.7.7h4.6c.3 0 .6-.3.6-.7v-4.6c0-.3-.3-.7-.6-.7M13.4 16.2H8.9c-.4 0-.7.4-.7.7v4.6c0 .4.3.7.7.7h4.5c.4 0 .7-.3.7-.7v-4.6c0-.3-.3-.7-.7-.7M24.3 16.2h-6.9c-.5 0-1 .5-1 1.1v6.8c0 .6.5 1 1 1h6.9c.5 0 1-.4 1-1v-6.8c0-.6-.5-1.1-1-1.1"/></g></svg>