<svg width="80" height="80" viewBox="0 0 80 80" xmlns="http://www.w3.org/2000/svg"><title>8EF5FA1E-66EF-4230-9421-1FE5DA98C1A9</title><defs><linearGradient x1="50%" y1="97.296%" x2="50%" y2="0%" id="a"><stop stop-color="#00BF28" offset="0%"/><stop stop-color="#00E12F" offset="100%"/></linearGradient></defs><path d="M27.2 0c-8.867 0-11.7 0-15.7 1.333C6.787 3 3 6.787 1.333 11.5 0 15.5 0 18.333 0 27.2v25.6c0 8.867 0 11.7 1.333 15.7C3.003 73.213 6.787 77 11.5 78.667 15.5 80 18.333 80 27.2 80h25.6c8.867 0 11.7 0 15.7-1.333C73.213 77 77 73.213 78.667 68.5 80 64.5 80 61.667 80 52.8V27.2c0-8.867 0-11.7-1.333-15.7C77 6.833 73.16 3 68.493 1.333 64.493 0 61.667 0 52.8 0H27.2zm33.467 70l-15.334-9.333h-20c-3.73.194-6.666-2.756-6.666-6.667V25.333c0-3.713 2.937-6.666 6.666-6.666H54c3.732 0 6.667 2.953 6.667 6.666V70z" fill="url(#a)" fill-rule="evenodd"/></svg>