<svg xmlns="http://www.w3.org/2000/svg" width="22" height="22" viewBox="0 0 22 22"><title>05E9F0B7-9E64-4C7E-B6F9-05AF144C00FD</title><path d="M0 1c0-.5.5-1 1-1h3.1c.6 0 1.1.5 1.1 1v3.2c0 .6-.5 1-1.1 1H1c-.5 0-1-.4-1-1V1zm0 6.8c0-.5.5-1 1-1h3.1c.6 0 1.1.5 1.1 1V11c0 .6-.5 1-1.1 1H1c-.5 0-1-.4-1-1V7.8zM6.7 1c0-.5.5-1 1.1-1h3.1c.6 0 1 .5 1 1v3.2c0 .6-.4 1-1 1H7.8c-.6 0-1.1-.4-1.1-1V1zm6.8 0c0-.5.4-1 1-1h3.1c.6 0 1.1.5 1.1 1v3.2c0 .6-.5 1-1.1 1h-3.1c-.6 0-1-.4-1-1V1zm0 6.8c0-.5.4-1 1-1h3.1c.6 0 1.1.5 1.1 1V11c0 .6-.5 1-1.1 1h-3.1c-.6 0-1-.4-1-1V7.8zM0 14.7c0-.6.5-1.1 1-1.1h3.1c.6 0 1.1.5 1.1 1.1v3.1c0 .6-.5 1.1-1.1 1.1H1c-.5 0-1-.5-1-1.1v-3.1zm6.7 0c0-.6.5-1.1 1.1-1.1h3.1c.6 0 1 .5 1 1.1v3.1c0 .6-.4 1.1-1 1.1H7.8c-.6 0-1.1-.5-1.1-1.1v-3.1zm6.8-.1c0-.5.4-1 1-1h6.2c.6 0 1.1.5 1.1 1V21c0 .5-.5 1-1.1 1h-6.2c-.6 0-1-.5-1-1v-6.4z" fill="#959595"/></svg>