<svg xmlns="http://www.w3.org/2000/svg" width="18" height="18" viewBox="0 0 18 18"><title>nature_active</title><path d="M17.4 6.5c-.9-2.7-2.8-2.2-5.2-1.4-.1 0-.2 0-.3.1 0-.1.1-.2.1-.4C12 2.4 11.8.4 8.9.4s-3 2-3 4.4v.4c-.1-.1-.2-.1-.3-.2C3.2 4.3 1.3 3.8.4 6.5c-.9 2.7 1 3.4 3.3 4.2.1 0 .2.1.3.1 0 .1-.1.2-.2.3-1.4 1.9-2.5 3.6-.2 5.3 2.4 1.7 3.7.1 5.1-1.8.1-.1.1-.2.2-.3 0 .1.1.2.2.3 1.4 2 2.7 3.5 5.1 1.8 2.3-1.7 1.2-3.3-.2-5.3-.1-.1-.2-.2-.2-.3.1 0 .2 0 .3-.1 2.4-.7 4.2-1.4 3.3-4.2zm-8.5 5.1c-1.4 0-2.5-1.1-2.5-2.5s1.1-2.5 2.5-2.5 2.6 1.1 2.6 2.5-1.2 2.5-2.6 2.5z" fill="#FFF"/></svg>