<svg xmlns="http://www.w3.org/2000/svg" width="23" height="17" viewBox="0 0 23 17"><title>places_active</title><path d="M20.8 8.3c-.8-.8-1.7-1.2-2.6-1.4V5.5c0-1.5-.6-2.8-1.6-3.8S14.3.1 12.8.1h-2.7C8.7.1 7.4.7 6.4 1.7c-.9.9-1.5 2.3-1.5 3.7v1.5c-1 .2-1.9.6-2.7 1.4-.9.9-1.4 2.1-1.4 3.3v1.6c0 .1.1.3.2.5.2.1.4.2.6.2h1.7v1.5c0 .4.2.7.5 1 .2.3.6.4 1 .4h.5c.4 0 .7-.1 1-.4.3-.3.4-.6.4-1v-1.5h9.5v1.5c0 .4.2.7.5 1 .2.3.6.4 1 .4h.5c.4 0 .7-.1 1-.4.3-.3.4-.6.4-1v-1.5h1.8c.2 0 .4-.1.5-.2.2-.2.2-.4.2-.5v-1.5c0-1.3-.4-2.5-1.3-3.4zM5.1 12.1c-.9 0-1.6-.7-1.6-1.6 0-.9.7-1.6 1.6-1.6.9 0 1.6.7 1.6 1.6 0 .9-.7 1.6-1.6 1.6zM6 6.9V5.4c0-1.2.4-2.2 1.2-3C8 1.6 9 1.2 10.1 1.2h2.7c1.2 0 2.2.4 3 1.2.8.8 1.3 1.9 1.3 3.1v1.4H6zm11.8 5.2c-.8 0-1.6-.7-1.6-1.6 0-.9.8-1.6 1.6-1.6.9 0 1.7.7 1.7 1.6 0 .9-.8 1.6-1.7 1.6z" fill="#FFF"/></svg>