<svg xmlns="http://www.w3.org/2000/svg" width="20" height="20" viewBox="0 0 20 20"><style>.a{fill:#fff}.b{fill:#231f1f}</style><title>srickers-q</title><g fill="none"><path d="M19.9 15.5c0 2-1.6 3.7-3.7 3.7H4.6c-2 0-3.7-1.7-3.7-3.7V3.8C.9 1.8 2.6.2 4.6.2h11.6c2.1 0 3.7 1.6 3.7 3.6v11.7" fill="#91BE1F"/><path d="M18.9 6.9c0 2.1-1.6 3.7-3.6 3.7-2.1 0-3.7-1.6-3.7-3.7 0-2 1.6-3.6 3.7-3.6 2 0 3.6 1.6 3.6 3.6" class="a"/><path d="M17.7 6.9c0 1.4-1.1 2.4-2.4 2.4-1.4 0-2.4-1-2.4-2.4 0-1.3 1-2.4 2.4-2.4 1.3 0 2.4 1.1 2.4 2.4" class="b"/><path d="M16.6 6.4c0 .5-.4.9-.9.9s-.9-.4-.9-.9.4-.9.9-.9.9.4.9.9M9.6 6.9c0 2.1-1.7 3.7-3.7 3.7S2.3 9 2.3 6.9c0-2 1.6-3.6 3.6-3.6s3.7 1.6 3.7 3.6" class="a"/><path d="M8.3 6.9c0 1.4-1.1 2.4-2.4 2.4-1.3 0-2.4-1-2.4-2.4 0-1.3 1.1-2.4 2.4-2.4 1.3 0 2.4 1.1 2.4 2.4" class="b"/><path d="M7.3 6.4c0 .5-.5.9-1 .9s-.9-.4-.9-.9.4-.9.9-.9 1 .4 1 .9" class="a"/><path d="M10.4 17.5c2.5 0 4.4-2 4.4-4.4-2.7 1.3-5.7 1.3-8.8 0 0 2.4 2 4.4 4.4 4.4" fill="#066633"/></g></svg>