<svg xmlns="http://www.w3.org/2000/svg" width="23" height="14" viewBox="0 0 23 14"><title>symbols_active</title><path d="M21 1H1.7C.9 1 .3 1.5.3 2.2v10.5c0 .7.6 1.3 1.4 1.3H21c.8 0 1.4-.6 1.4-1.3V2.2c0-.7-.6-1.2-1.4-1.2zM3.5 10h1.8v1.6H3.5V10zm1.8-4.5l-.5 3.9H4l-.5-3.9V3.4h1.8v2.1zM9 10h1.8v1.6H9V10zm3.4-3.1c-.1.2-.4.5-.8.8l-.4.3c-.3.2-.4.4-.5.6 0 .1-.1.4-.1.7H9.1c0-.7 0-1.1.1-1.3.1-.3.4-.6.8-.9l.5-.3.3-.3c.1-.2.2-.5.2-.7 0-.3-.1-.5-.2-.8-.2-.2-.5-.3-1-.3-.4 0-.8.1-.9.4-.2.3-.3.6-.3.9H6.9c0-1.1.4-1.8 1.1-2.3.5-.2 1.1-.4 1.7-.4.9 0 1.7.2 2.2.6.6.4.9 1 .9 1.8 0 .5-.1.9-.4 1.2zm7.5-.1h-1.2l-.5 1.7h1.2l-.2.9H18l-.7 2.2h-1.1l.6-2.2h-1l-.6 2.2H14l.7-2.2h-1.2l.3-.9h1.1l.5-1.7h-1.2l.3-.9h1.2l.6-2.3h1.2l-.7 2.3h1l.6-2.3h1.2L19 5.9h1.1l-.2.9zm-3.8 1.7h1l.4-1.7h-.9l-.5 1.7z" fill="#FFF"/></svg>